<?xml version="1.0" encoding="UTF-8" standalone="no"?>
<svg
   height="800"
   width="1200"
   viewBox="-42.525 -70.875 368.55 425.25"
   version="1.1"
   id="svg2"
   sodipodi:docname="NintendoSwitch.svg"
   xmlns:inkscape="http://www.inkscape.org/namespaces/inkscape"
   xmlns:sodipodi="http://sodipodi.sourceforge.net/DTD/sodipodi-0.dtd"
   xmlns="http://www.w3.org/2000/svg"
   xmlns:svg="http://www.w3.org/2000/svg">
  <defs
     id="defs2" />
  <sodipodi:namedview
     id="namedview2"
     pagecolor="#ffffff"
     bordercolor="#000000"
     borderopacity="0.25"
     inkscape:showpageshadow="2"
     inkscape:pageopacity="0.0"
     inkscape:pagecheckerboard="0"
     inkscape:deskcolor="#d1d1d1"
     showgrid="false"
     inkscape:export-bgcolor="#ffffffff" />
  <path
     fill="#e60012"
     d="M 0,0 H 283.5 V 283.5 H 0 Z"
     id="path1" />
  <path
     fill="#ffffff"
     d="m 128.4,241.6 h 6.7 v -30 h -6.7 z m -34.8,-48.8 7.9,10.6 h 3.1 v -15.9 h -3.2 V 198 l -7.8,-10.4 h -3.2 v 15.9 h 3.2 z m 35.8,-5.3 h -13.5 v 3.4 h 5.1 v 12.5 h 3.4 v -12.5 h 5 z m -20.7,45.8 -6.4,-21.8 H 97 l -6.3,21.7 -5.8,-21.7 h -6.5 l 8.5,30 h 7.2 l 5.6,-19.8 5.6,19.8 h 7.2 l 8.5,-30 h -6.5 z m 45.1,-65.2 h 19.6 c 18,0 32.6,-14.6 32.6,-32.6 v -62 c 0,-18 -14.6,-32.6 -32.6,-32.6 h -19.7 c -0.5,0 -0.8,0.4 -0.8,0.8 v 125.5 c 0,0.5 0.4,0.9 0.9,0.9 z M 178,98 c 7.1,0 12.9,5.8 12.9,12.9 0,7.1 -5.8,12.9 -12.9,12.9 -7.1,0 -12.9,-5.8 -12.9,-12.9 0.1,-7.1 5.8,-12.9 12.9,-12.9 z m -99.6,89.5 h -3.5 v 15.9 h 3.5 z m -26.6,5.3 7.9,10.6 h 3.1 V 187.5 H 59.6 V 198 l -7.8,-10.4 h -3.2 v 15.9 h 3.2 z m 9.4,30.6 H 61 c -3.7,-0.6 -6.8,-1.2 -7.1,-3.3 0,-0.3 0,-1 0.5,-1.7 1,-1.2 3.3,-1.7 6.7,-1.7 3.9,0 7.8,1.5 9.2,2.1 l 2.1,-5.2 c -1.5,-0.6 -6.3,-2.3 -11.6,-2.3 -6.5,0 -13.4,3.2 -13.4,9 0,4.7 3.3,7.2 11.9,8.7 6.1,1 9.4,1.6 9.3,4.2 -0.1,1.4 -1.2,3.8 -8,3.8 -5.5,0 -9.4,-2 -10.7,-2.8 l -2.8,5.1 c 1.5,0.8 6.6,3.2 13.1,3.2 9.5,0 14.6,-3.3 14.6,-9.6 0.1,-4.5 -2.1,-7.5 -13.6,-9.5 z M 98.6,79.1 c 0,6.6 5.4,12 12,12 6.6,0 12,-5.4 12,-12 0,-6.6 -5.4,-12 -12,-12 -6.7,0 -12,5.3 -12,12 z m 54.8,121.4 h -9.1 v -3.7 h 8.4 v -2.9 h -8.4 v -3.4 h 9.1 v -2.9 H 141 v 15.9 h 12.4 z M 227.8,187 c -4.7,0 -8.5,3.8 -8.5,8.5 0,4.7 3.8,8.5 8.5,8.5 4.7,0 8.5,-3.8 8.5,-8.5 -0.1,-4.7 -3.9,-8.5 -8.5,-8.5 z m 0,13.4 c -2.7,0 -4.9,-2.2 -4.9,-4.9 0,-2.7 2.2,-4.9 4.9,-4.9 2.7,0 4.9,2.2 4.9,4.9 0,2.7 -2.2,4.9 -4.9,4.9 z m 1,23 h -14 v -11.8 h -6.2 v 30 h 6.2 v -12 h 14 v 12 h 6.2 v -30 h -6.2 z m 8.7,15.1 h 1.3 v 3.1 h 0.7 v -3.1 h 1.2 v -0.7 h -3.2 z m 6.9,-0.8 -1,2.8 -1,-2.8 h -1.1 v 3.8 h 0.7 v -2.9 l 1,2.9 h 0.7 l 1,-2.9 v 2.9 h 0.7 v -3.8 z m -55.7,-20.4 c 3.4,0 6.5,1.8 8.2,4.7 l 4.9,-4.2 c -3,-4.4 -7.9,-7.1 -13.3,-7.1 -8.8,0 -16,7.2 -16,16 0,8.8 7.2,16 16,16 5.4,0 10.3,-2.6 13.3,-7.1 l -4.9,-4.2 c -1.7,2.8 -4.8,4.7 -8.2,4.7 -5.2,0 -9.5,-4.2 -9.5,-9.3 0,-5.1 4.2,-9.5 9.5,-9.5 z m -46.3,0.6 h 9.6 v 23.6 h 6.5 v -23.6 h 9.4 v -6.4 h -25.4 v 6.4 z m 38.4,-14.5 v -15.9 h -3.2 V 198 l -7.8,-10.4 h -3.2 v 15.9 h 3.2 v -10.6 l 7.9,10.6 h 3.1 z M 139.2,40.9 h -27.8 c -18,0 -32.6,14.6 -32.6,32.6 v 62 c 0,18 14.6,32.6 32.6,32.6 h 27.8 c 0.5,0 0.9,-0.4 0.9,-0.9 V 41.8 c 0,-0.5 -0.4,-0.9 -0.9,-0.9 z m -9.3,117 h -18.5 c -6,0 -11.6,-2.3 -15.8,-6.6 -4.2,-4.2 -6.6,-9.8 -6.6,-15.8 v -62 c 0,-6 2.3,-11.6 6.6,-15.8 4.2,-4.2 9.8,-6.6 15.8,-6.6 h 18.5 z m 70.9,29.6 h -6.6 v 15.9 h 6.6 c 4.5,0 8.2,-3.6 8.2,-7.9 0,-4.4 -3.7,-8 -8.2,-8 z m 0.2,12.6 h -3.5 v -9.2 h 3.5 c 2.5,0 4.6,2.1 4.6,4.6 0,2.5 -2.1,4.6 -4.6,4.6 z"
     id="path2" />
</svg>
